<svg xmlns="http://www.w3.org/2000/svg" viewBox="0 0 120 140" fill="none">
  <!-- Stars -->
  <text x="5" y="20" font-size="12">⭐</text>
  <text x="96" y="22" font-size="12">⭐</text>
  <!-- Background circle -->
  <circle cx="60" cy="68" r="52" fill="#FFFDE7"/>
  <!-- Curly hair -->
  <ellipse cx="60" cy="28" rx="38" ry="22" fill="#5D3A1A"/>
  <circle cx="26" cy="41" r="13" fill="#5D3A1A"/>
  <circle cx="94" cy="41" r="13" fill="#5D3A1A"/>
  <circle cx="18" cy="55" r="10" fill="#5D3A1A"/>
  <circle cx="102" cy="55" r="10" fill="#5D3A1A"/>
  <circle cx="40" cy="17" r="9" fill="#5D3A1A"/>
  <circle cx="60" cy="13" r="9" fill="#5D3A1A"/>
  <circle cx="80" cy="17" r="9" fill="#5D3A1A"/>
  <!-- Face -->
  <ellipse cx="60" cy="75" rx="34" ry="38" fill="#FFCC99"/>
  <!-- Glasses frame -->
  <rect x="27" y="65" width="24" height="16" rx="7" stroke="#444" stroke-width="2.5" fill="#E3F2FD" fill-opacity="0.6"/>
  <rect x="69" y="65" width="24" height="16" rx="7" stroke="#444" stroke-width="2.5" fill="#E3F2FD" fill-opacity="0.6"/>
  <line x1="51" y1="73" x2="69" y2="73" stroke="#444" stroke-width="2"/>
  <!-- Happy squint eyes -->
  <path d="M34 72 Q39 67 44 72" stroke="#333" stroke-width="3" stroke-linecap="round" fill="none"/>
  <path d="M76 72 Q81 67 86 72" stroke="#333" stroke-width="3" stroke-linecap="round" fill="none"/>
  <!-- Eyebrows raised happy -->
  <path d="M32 61 Q39 56 46 61" stroke="#5D3A1A" stroke-width="2" stroke-linecap="round" fill="none"/>
  <path d="M74 61 Q81 56 88 61" stroke="#5D3A1A" stroke-width="2" stroke-linecap="round" fill="none"/>
  <!-- Nose -->
  <ellipse cx="60" cy="85" rx="3" ry="2" fill="#E8A87C"/>
  <!-- Big happy smile -->
  <path d="M46 95 Q60 108 74 95" stroke="#C0705A" stroke-width="2.5" stroke-linecap="round" fill="#FFB3A7"/>
  <!-- Cheeks bright -->
  <ellipse cx="38" cy="89" rx="9" ry="6" fill="#FF8A80" opacity="0.6"/>
  <ellipse cx="82" cy="89" rx="9" ry="6" fill="#FF8A80" opacity="0.6"/>
</svg>
